# xmcd CD database file
#
# Track frame offsets:
#	150
#	14974
#	46807
#	63400
#	69852
#	94374
#	114544
#	132146
#	142503
#
# Disc length: 2085 seconds
#
# Revision: 0
# Processed by: cddbd v1.5.2PL0 Copyright (c) Steve Scherf et al.
# Submitted via: CDex 1.51
#
DISCID=77082309
DTITLE=Kerry Clark Blues Company - Soulful Moments
DYEAR=2008
DGENRE=Blues
TTITLE0=Big Leg Woman
TTITLE1=Bluebird
TTITLE2=Kansas City
TTITLE3=Hot Tamales
TTITLE4=Kind Hearted Woman
TTITLE5=Pork Salad Annie
TTITLE6=Guitar Man
TTITLE7=My Automobile
TTITLE8=Bessie
EXTD=YEAR: 2008
EXTT0=
EXTT1=
EXTT2=
EXTT3=
EXTT4=
EXTT5=
EXTT6=
EXTT7=
EXTT8=
PLAYORDER=
